Simulation
nRows=32
nColumns=15
endheader
time  TH_x TH_y TH_z SC_y  SC_z  SC_x  AC_y  AC_z  AC_x  GH_y  GH_z  GH_yy  EL_x  PS_y
2.681  0.000000  0.000000  0.000000  -23.624402772038348  9.336963976810633  -2.4793624461723627  46.68104261223984  8.334427655872744  2.2824136616847865  16.187608975543803  4.822000091128687  22.136472098419112  15.875145543223498  120.000000
2.73462  0.000000  0.000000  0.000000  -23.67338678617238  8.945915799866407  -2.2115135108919413  47.10946754845465  8.800035423244172  2.227177847828181  35.41898408605124  2.9356504362520086  6.4648857586683395  16.95333353939902  120.000000
2.78824  0.000000  0.000000  0.000000  -23.980064693929563  8.54717903551172  -1.8451873141099784  47.63199348139629  9.326954470911074  2.165683549112621  73.21666493077218  2.1819657016767127  -28.780142487746982  17.8245881524587  120.000000
2.84186  0.000000  0.000000  0.000000  -24.435985238056762  8.14959842092158  -1.4338858523129703  48.197430495131854  9.881877676050468  2.093876160757427  105.49337292816398  2.5522586593072827  -59.42926263815146  18.446376825353887  120.000000
2.89548  0.000000  0.000000  0.000000  -24.916746822050325  7.7557507950303926  -1.024681274897357  48.7756426029596  10.4300384308008  2.0162746763116166  119.66556290149312  3.1686203228805985  -72.73558394475978  18.813456782493716  120.000000
2.9491  0.000000  0.000000  0.000000  -25.313242050905956  7.365589444895645  -0.6577097491371388  49.35266672302839  10.9363059288617  1.9427467044037598  125.25089479742971  3.5823442425158727  -78.02937974059756  18.949671331946714  120.000000
3.00272  0.000000  0.000000  0.000000  -25.558374045775214  6.980676097433635  -0.3627443277792521  49.91951025113876  11.374595109959508  1.8839570733273348  126.9948917710797  3.7087073079456303  -79.89028686512766  18.901493537644257  120.000000
3.05634  0.000000  0.000000  0.000000  -25.630360272090492  6.607423290126924  -0.16476292656493116  50.46679095110482  11.737891143527792  1.8520037247825551  126.35499086310422  3.578276528724213  -79.64092449549932  18.73045401761419  120.000000
3.10996  0.000000  0.000000  0.000000  -25.541741107979774  6.2545255715264165  -0.07867298342052376  50.98321866263567  12.028745652723371  1.8574973926943885  123.47455879058947  3.263759142320717  -77.31550368019428  18.501689703391293  120.000000
3.16358  0.000000  0.000000  0.000000  -25.324951935555212  5.929617021920438  -0.10084557405108216  51.45866028328649  12.247055909887758  1.903696118766695  117.77023472494264  2.85829616394531  -72.24329443269265  18.26903093421631  120.000000
3.2172  0.000000  0.000000  0.000000  -25.01879494354583  5.638356005641678  -0.21631820846971367  51.88694770729691  12.39149550221504  1.9885522070485515  108.24110413494505  2.4692548845902627  -63.35621765343954  18.063927617382422  120.000000
3.27082  0.000000  0.000000  0.000000  -24.662604421890514  5.385351672445938  -0.4072300156973885  52.26423214489435  12.463098223259436  2.1084570446759985  94.3930863249619  2.2108109038388455  -50.113964846348125  17.89288657440704  120.000000
3.32444  0.000000  0.000000  0.000000  -24.289962721125566  5.174248712993722  -0.6587837101505809  52.589155598566364  12.467794025656536  2.258998499861897  78.11161878673991  2.1748775341160402  -34.375256006914434  17.746189814993443  120.000000
3.37806  0.000000  0.000000  0.000000  -23.924466030843003  5.005849969601744  -0.9611716265797302  52.862553041498906  12.416039699116011  2.434392919574  63.45642884543768  2.3788738490770127  -20.188842713735077  17.60978604626826  120.000000
3.43168  0.000000  0.000000  0.000000  -23.578475800238927  4.877976329717783  -1.3095179740735285  53.08597224989313  12.319967150938824  2.627213681577072  52.85745372536583  2.7679231617957236  -9.983537667680144  17.47504844877413  120.000000
3.4853  0.000000  0.000000  0.000000  -23.255038626614088  4.784329257281293  -1.7026706527852602  53.257244674277224  12.18899589570777  2.831028952718627  45.99002655918741  3.2759030278109083  -3.4378992605090106  17.341976508745514  120.000000
3.53892  0.000000  0.000000  0.000000  -22.95010977940093  4.714447019217168  -2.1414880943877574  53.36822590157567  12.027850398945032  3.0419949024417248  41.59742419210657  3.8590927567381454  0.6998433867824464  17.21599175775383  120.000000
3.59254  0.000000  0.000000  0.000000  -22.652525750890128  4.656169032791736  -2.6283320810145843  53.409621111113914  11.837004315164869  3.2575901335321302  38.61330149705343  4.4955457492550845  3.4920171329839023  17.101878883082552  120.000000
3.64616  0.000000  0.000000  0.000000  -22.343245360119752  4.599348575854508  -3.1669289108307246  53.378031239822285  11.615661671417334  3.474612461198761  36.34848167341668  5.178486585388083  5.625350458635117  16.99795039638045  120.000000
3.69978  0.000000  0.000000  0.000000  -21.998620907728675  4.5388255475548895  -3.7603356225944817  53.27765511820681  11.365014358127299  3.688491938537758  34.37689463182058  5.912540160506519  7.523053097620982  16.891759058012823  120.000000
3.7534  0.000000  0.000000  0.000000  -21.59798650421308  4.472705192144923  -4.4070551721667615  53.11510655875672  11.090095930383185  3.8953031379145067  32.41082410107186  6.71164278540456  9.465146493936178  16.76009270507382  120.000000
3.80702  0.000000  0.000000  0.000000  -21.131996714705203  4.400054130194587  -5.098925076493214  52.8955340123156  10.79975278521422  4.094861889233432  30.26809136577011  7.600318975887231  11.614671067069587  16.573408009993123  120.000000
3.86064  0.000000  0.000000  0.000000  -20.60681080938306  4.3204487371538045  -5.825431401259943  52.626995229879334  10.50268276614665  4.290071288321418  27.888963837515522  8.615264448230956  13.993695094389974  16.30408380735713  120.000000
3.91426  0.000000  0.000000  0.000000  -20.043012478969448  4.233562990985267  -6.579702866953106  52.32585822406976  10.204001936424852  4.486563324224785  25.316808298864018  9.804273465744307  16.494469653450793  15.932838554589642  120.000000
3.96788  0.000000  0.000000  0.000000  -19.471061693000703  4.134728814138772  -7.358186052031289  52.01426989467065  9.906523218555195  4.696581246754069  22.63302322720128  11.223537199414244  18.943567504195308  15.449653184317548  120.000000
4.0215  0.000000  0.000000  0.000000  -18.91616749682194  4.017903532277533  -8.1597684743501  51.721653212782165  9.615841093415579  4.937988168835883  19.895863614379444  12.933160416055243  21.178250936768254  14.857396227851149  120.000000
4.07512  0.000000  0.000000  0.000000  -18.393383189877106  3.8826439199930984  -8.985641122999075  51.48586090646732  9.346764321402002  5.2301688855378785  17.117903115519272  14.997664714518283  23.08800808446305  14.179128766048807  120.000000
4.1287400000000005  0.000000  0.000000  0.000000  -17.908250249420895  3.729379228885206  -9.833245199646228  51.34145686956192  9.12258325344258  5.594249069319272  14.278083928094095  17.48287693252063  24.629221238331187  13.463125596819337  120.000000
4.18236  0.000000  0.000000  0.000000  -17.459903612958176  3.5578319285308684  -10.693362051660037  51.31615430380762  8.969464462845455  6.045900559192914  11.383737581461318  20.444857891187908  25.78128319711666  12.781616149561296  120.000000
4.23598  0.000000  0.000000  0.000000  -17.055334013059483  3.3704827033030296  -11.551635808197252  51.42713724007536  8.912573286085694  6.585705655009614  8.503386602724468  23.91302830755803  26.506600824124362  12.211209643997064  120.000000
4.2896  0.000000  0.000000  0.000000  -16.717756183696604  3.1729240564565635  -12.388822353720798  51.67112715330876  8.975714545323637  7.197529006617263  5.746634182377461  27.870105578795258  26.759913549074824  11.803296773919149  120.000000
4.3432200000000005  0.000000  0.000000  0.000000  -16.489966292514886  2.9766164421629373  -13.183953473825314  52.029654281032656  9.184270300186611  7.85074181376527  3.2497476522570503  32.24284703939252  26.490264966384174  11.561432361905046  120.000000
